<svg version="1.1" id="Layer_1" xmlns="http://www.w3.org/2000/svg" xmlns:xlink="http://www.w3.org/1999/xlink" x="0" y="0" width="146" height="146" viewBox="0 0 146 146" enable-background="new 0 0 146 146" xml:space="preserve"><rect x="0" y="0" fill="#FFF" width="145" height="98"/><g><g><path fill="#046AB2" d="M142.7,3.3v139.3H3.3V3.3H142.7 M146,0H0v146h146V0L146,0z"/></g><rect x="1" y="95.7" fill="#0369B2" width="144" height="49.6"/><g><path fill="#FFF" d="M24.1,116.2c-0.7,0.4-1.5,0.6-2.4,0.6c-0.8,0-1.5-0.2-2.1-0.5c-0.6-0.3-1.2-0.7-1.6-1.3 c-0.4-0.6-0.8-1.2-1-2c-0.2-0.8-0.4-1.6-0.4-2.5c0-0.9,0.1-1.7,0.4-2.5c0.2-0.8,0.6-1.4,1-2c0.4-0.6,1-1,1.6-1.3 c0.6-0.3,1.3-0.5,2.1-0.5c1,0,1.8,0.2,2.5,0.6c0.7,0.4,1.2,0.9,1.6,1.7l-1.6,1c-0.3-0.5-0.6-0.9-1-1.1c-0.4-0.2-0.9-0.4-1.5-0.4 c-1.1,0-1.9,0.4-2.4,1.2c-0.6,0.8-0.8,1.9-0.8,3.2s0.3,2.4,0.8,3.2c0.6,0.8,1.4,1.2,2.4,1.2c0.6,0,1.2-0.1,1.6-0.4 c0.4-0.3,0.8-0.6,1.1-1.1l1.5,1C25.4,115.3,24.8,115.8,24.1,116.2z"/><path fill="#FFF" d="M34.6,112.4c0,0.1,0,0.3,0,0.4h-6c0,0.4,0.1,0.8,0.3,1.1c0.1,0.3,0.3,0.6,0.5,0.8c0.2,0.2,0.4,0.4,0.7,0.4 c0.3,0.1,0.5,0.1,0.8,0.1c0.4,0,0.7-0.1,1-0.2c0.3-0.1,0.6-0.3,0.9-0.5l1.1,1.1c-0.4,0.4-0.9,0.7-1.3,0.9 c-0.5,0.2-1.1,0.3-1.8,0.3c-0.5,0-1-0.1-1.5-0.3c-0.5-0.2-0.9-0.5-1.2-0.9s-0.6-0.9-0.8-1.5c-0.2-0.6-0.3-1.3-0.3-2 c0-0.8,0.1-1.4,0.3-2c0.2-0.6,0.5-1.1,0.8-1.5c0.3-0.4,0.8-0.7,1.2-0.9c0.5-0.2,1-0.3,1.6-0.3c0.6,0,1.2,0.1,1.7,0.4 c0.5,0.2,0.9,0.6,1.2,1c0.3,0.4,0.6,0.9,0.7,1.4c0.2,0.6,0.2,1.1,0.2,1.7C34.7,112.1,34.7,112.2,34.6,112.4z M32.7,110.4 c-0.1-0.3-0.2-0.5-0.4-0.7c-0.2-0.2-0.4-0.4-0.6-0.5c-0.3-0.1-0.6-0.2-0.9-0.2c-0.6,0-1.1,0.2-1.4,0.6c-0.4,0.4-0.6,1-0.6,1.7h4.2 C32.8,111,32.8,110.7,32.7,110.4z"/><path fill="#FFF" d="M41.9,116.6v-5.1c0-0.9-0.2-1.6-0.5-1.9c-0.3-0.4-0.8-0.6-1.4-0.6c-0.6,0-1.1,0.2-1.4,0.6 c-0.3,0.4-0.5,1-0.5,1.7v5.3h-1.8v-9h1.8v0.9c0.2-0.3,0.5-0.6,1-0.8c0.4-0.2,0.8-0.3,1.3-0.3c1.1,0,1.9,0.3,2.4,1 c0.5,0.7,0.8,1.7,0.8,3v5.2H41.9z"/><path fill="#FFF" d="M50,116.4c-0.2,0.1-0.5,0.2-0.8,0.3c-0.3,0.1-0.6,0.1-1,0.1c-0.6,0-1.1-0.2-1.5-0.6 c-0.4-0.4-0.5-1-0.5-1.8v-5.2h-1.3v-1.6h1.3V105l1.7-0.9v3.5h2.2v1.6h-2.2v4.9c0,0.4,0.1,0.7,0.2,0.9c0.1,0.1,0.4,0.2,0.7,0.2 c0.2,0,0.5,0,0.7-0.1c0.2-0.1,0.4-0.2,0.6-0.2L50,116.4z"/><path fill="#FFF" d="M59.1,112.4c0,0.1,0,0.3,0,0.4h-6c0,0.4,0.1,0.8,0.3,1.1c0.1,0.3,0.3,0.6,0.5,0.8c0.2,0.2,0.4,0.4,0.7,0.4 c0.3,0.1,0.5,0.1,0.8,0.1c0.4,0,0.7-0.1,1-0.2c0.3-0.1,0.6-0.3,0.9-0.5l1.1,1.1c-0.4,0.4-0.9,0.7-1.3,0.9 c-0.5,0.2-1.1,0.3-1.8,0.3c-0.5,0-1-0.1-1.5-0.3c-0.5-0.2-0.9-0.5-1.2-0.9c-0.4-0.4-0.6-0.9-0.8-1.5c-0.2-0.6-0.3-1.3-0.3-2 c0-0.8,0.1-1.4,0.3-2c0.2-0.6,0.5-1.1,0.8-1.5c0.3-0.4,0.8-0.7,1.2-0.9c0.5-0.2,1-0.3,1.6-0.3c0.6,0,1.2,0.1,1.7,0.4 c0.5,0.2,0.9,0.6,1.2,1c0.3,0.4,0.6,0.9,0.7,1.4c0.2,0.6,0.2,1.1,0.2,1.7C59.1,112.1,59.1,112.2,59.1,112.4z M57.1,110.4 c-0.1-0.3-0.2-0.5-0.4-0.7c-0.2-0.2-0.4-0.4-0.6-0.5c-0.3-0.1-0.6-0.2-0.9-0.2c-0.6,0-1.1,0.2-1.4,0.6c-0.4,0.4-0.6,1-0.6,1.7h4.2 C57.3,111,57.2,110.7,57.1,110.4z"/><path fill="#FFF" d="M65.8,109.5c-0.2-0.1-0.4-0.2-0.6-0.2c-0.2-0.1-0.5-0.1-0.8-0.1c-0.6,0-1,0.2-1.3,0.6 c-0.3,0.4-0.5,1-0.5,1.7v5.2h-1.8v-9h1.8v0.9c0.2-0.3,0.5-0.5,0.9-0.7c0.4-0.2,0.8-0.3,1.2-0.3c0.4,0,0.7,0,0.9,0.1 c0.2,0.1,0.4,0.2,0.6,0.3L65.8,109.5z"/><path fill="#FFF" d="M74.9,105.7c-0.3,0-0.5,0.1-0.6,0.2c-0.1,0.1-0.2,0.4-0.2,0.7v1h1.7v1.7h-1.7v7.4h-1.8v-7.4h-1.2v-1.7h1.2 v-1.2c0-0.4,0.1-0.8,0.2-1.1c0.1-0.3,0.3-0.5,0.5-0.7c0.2-0.2,0.5-0.3,0.7-0.4c0.3-0.1,0.6-0.1,0.9-0.1c0.2,0,0.5,0,0.7,0 c0.2,0,0.5,0.1,0.6,0.1v1.6C75.6,105.7,75.2,105.7,74.9,105.7z"/><path fill="#FFF" d="M84.4,114.1c-0.2,0.6-0.5,1.1-0.9,1.5c-0.4,0.4-0.8,0.7-1.3,0.9c-0.5,0.2-1,0.3-1.6,0.3 c-0.6,0-1.1-0.1-1.6-0.3c-0.5-0.2-0.9-0.5-1.3-1c-0.4-0.4-0.6-0.9-0.8-1.5c-0.2-0.6-0.3-1.2-0.3-1.9c0-0.7,0.1-1.4,0.3-2 c0.2-0.6,0.5-1.1,0.9-1.5c0.4-0.4,0.8-0.7,1.3-0.9c0.5-0.2,1-0.3,1.6-0.3c0.6,0,1.1,0.1,1.6,0.3c0.5,0.2,0.9,0.5,1.3,0.9 s0.6,0.9,0.8,1.5c0.2,0.6,0.3,1.2,0.3,1.9C84.7,112.8,84.6,113.5,84.4,114.1z M82.3,109.9c-0.4-0.5-1-0.8-1.7-0.8 c-0.7,0-1.2,0.3-1.6,0.8c-0.4,0.5-0.6,1.3-0.6,2.2c0,1,0.2,1.8,0.6,2.3c0.4,0.5,1,0.8,1.6,0.8c0.3,0,0.6-0.1,0.9-0.2 c0.3-0.2,0.5-0.4,0.7-0.6c0.2-0.3,0.3-0.6,0.4-1s0.2-0.8,0.2-1.2C82.9,111.2,82.7,110.5,82.3,109.9z"/><path fill="#FFF" d="M91.4,109.5c-0.2-0.1-0.4-0.2-0.6-0.2c-0.2-0.1-0.5-0.1-0.8-0.1c-0.6,0-1,0.2-1.3,0.6 c-0.3,0.4-0.5,1-0.5,1.7v5.2h-1.8v-9h1.8v0.9c0.2-0.3,0.5-0.5,0.9-0.7c0.4-0.2,0.8-0.3,1.2-0.3c0.4,0,0.7,0,0.9,0.1 c0.2,0.1,0.4,0.2,0.6,0.3L91.4,109.5z"/><path fill="#FFF" d="M21.7,125.3v10.3h-1.8v-10.3h-3.5v-1.8h8.8v1.8H21.7z"/><path fill="#FFF" d="M30,128.4c-0.2-0.1-0.4-0.2-0.6-0.2c-0.2-0.1-0.5-0.1-0.8-0.1c-0.6,0-1,0.2-1.3,0.6 c-0.3,0.4-0.5,1-0.5,1.7v5.2h-1.8v-9h1.8v0.9c0.2-0.3,0.5-0.5,0.9-0.7c0.4-0.2,0.8-0.3,1.2-0.3c0.4,0,0.7,0,0.9,0.1 c0.2,0.1,0.4,0.2,0.6,0.3L30,128.4z"/><path fill="#FFF" d="M36.4,135.6v-0.9c-0.3,0.3-0.7,0.6-1.1,0.8c-0.4,0.2-0.9,0.3-1.4,0.3c-0.4,0-0.7-0.1-1.1-0.2 c-0.4-0.1-0.7-0.3-1-0.5c-0.3-0.2-0.5-0.6-0.7-0.9c-0.2-0.4-0.3-0.9-0.3-1.4c0-0.5,0.1-0.9,0.3-1.3c0.2-0.4,0.4-0.7,0.8-0.9 c0.3-0.2,0.7-0.4,1.1-0.5c0.4-0.1,0.9-0.2,1.4-0.2c0.8,0,1.5,0.1,2,0.3v-0.7c0-0.5-0.1-0.9-0.4-1.1c-0.3-0.3-0.7-0.4-1.3-0.4 c-0.5,0-0.9,0-1.3,0.1c-0.4,0.1-0.7,0.2-1.1,0.4l-0.7-1.3c0.4-0.3,0.9-0.5,1.4-0.6c0.5-0.1,1.1-0.2,1.7-0.2c1,0,1.8,0.2,2.5,0.8 c0.6,0.5,0.9,1.3,0.9,2.3v6.2H36.4z M36.4,131.7c-0.2-0.1-0.5-0.2-0.9-0.3c-0.3-0.1-0.7-0.1-1.2-0.1c-0.6,0-1,0.1-1.4,0.4 c-0.3,0.2-0.5,0.6-0.5,1c0,0.4,0.1,0.8,0.4,1.1c0.3,0.3,0.7,0.4,1.3,0.4c0.5,0,0.9-0.1,1.3-0.4c0.4-0.2,0.7-0.5,0.9-0.8V131.7z"/><path fill="#FFF" d="M45.7,135.6v-5.1c0-0.9-0.2-1.6-0.5-1.9c-0.3-0.4-0.8-0.6-1.4-0.6c-0.6,0-1.1,0.2-1.4,0.6 c-0.3,0.4-0.5,1-0.5,1.7v5.3h-1.8v-9H42v0.9c0.2-0.3,0.5-0.6,1-0.8c0.4-0.2,0.8-0.3,1.3-0.3c1.1,0,1.9,0.3,2.4,1 c0.5,0.7,0.8,1.7,0.8,3v5.2H45.7z"/><path fill="#FFF" d="M55.6,134.4c-0.2,0.3-0.4,0.6-0.7,0.8c-0.3,0.2-0.7,0.4-1.1,0.4c-0.4,0.1-0.8,0.1-1.3,0.1 c-0.6,0-1.2-0.1-1.9-0.3c-0.6-0.2-1.2-0.5-1.6-0.8l0.8-1.3c0.4,0.3,0.9,0.5,1.3,0.7c0.5,0.1,0.9,0.2,1.3,0.2c1.1,0,1.7-0.3,1.7-1 c0-0.3-0.2-0.6-0.6-0.8c-0.4-0.2-0.9-0.4-1.5-0.7c-0.5-0.2-0.9-0.4-1.2-0.6c-0.3-0.2-0.6-0.4-0.8-0.6c-0.2-0.2-0.4-0.5-0.5-0.7 c-0.1-0.3-0.1-0.6-0.1-0.9c0-0.4,0.1-0.8,0.2-1.1c0.1-0.3,0.4-0.6,0.6-0.8c0.3-0.2,0.6-0.4,1-0.5c0.4-0.1,0.8-0.2,1.2-0.2 c0.6,0,1.1,0.1,1.7,0.3c0.5,0.2,1,0.4,1.4,0.7l-0.8,1.4c-0.4-0.3-0.7-0.5-1.1-0.6c-0.4-0.1-0.8-0.2-1.2-0.2 c-0.4,0-0.8,0.1-0.9,0.2c-0.2,0.2-0.3,0.4-0.3,0.6c0,0.1,0,0.2,0.1,0.3c0,0.1,0.1,0.2,0.3,0.3c0.1,0.1,0.3,0.2,0.5,0.3 c0.2,0.1,0.5,0.2,0.8,0.4c0.5,0.2,0.9,0.4,1.3,0.6c0.4,0.2,0.7,0.4,1,0.6c0.3,0.2,0.5,0.5,0.6,0.8c0.1,0.3,0.2,0.7,0.2,1.1 C55.9,133.6,55.8,134,55.6,134.4z"/><path fill="#FFF" d="M65,133.2c-0.2,0.6-0.5,1-0.8,1.4c-0.3,0.4-0.7,0.7-1.1,0.8c-0.4,0.2-0.9,0.3-1.4,0.3 c-0.5,0-0.9-0.1-1.3-0.3c-0.4-0.2-0.7-0.5-1-0.7v3.3l-1.8,0.9v-12.4h1.8v0.9c0.3-0.3,0.7-0.6,1.1-0.8c0.4-0.2,0.8-0.3,1.3-0.3 c0.5,0,0.9,0.1,1.4,0.3c0.4,0.2,0.8,0.5,1.1,0.9c0.3,0.4,0.6,0.9,0.7,1.5c0.2,0.6,0.3,1.4,0.3,2.2C65.3,132,65.2,132.7,65,133.2z M63,128.8c-0.4-0.5-0.9-0.8-1.5-0.8c-0.4,0-0.8,0.1-1.2,0.4c-0.4,0.2-0.6,0.5-0.9,0.8v3.8c0.1,0.1,0.2,0.3,0.4,0.4 c0.1,0.1,0.3,0.3,0.5,0.4c0.2,0.1,0.4,0.2,0.6,0.3c0.2,0.1,0.4,0.1,0.7,0.1c0.6,0,1.1-0.2,1.5-0.7c0.3-0.5,0.5-1.2,0.5-2.2 C63.5,130.1,63.3,129.3,63,128.8z"/><path fill="#FFF" d="M74.4,133c-0.2,0.6-0.5,1.1-0.9,1.5c-0.4,0.4-0.8,0.7-1.3,0.9c-0.5,0.2-1,0.3-1.6,0.3 c-0.6,0-1.1-0.1-1.6-0.3c-0.5-0.2-0.9-0.5-1.3-1c-0.4-0.4-0.6-0.9-0.8-1.5c-0.2-0.6-0.3-1.2-0.3-1.9c0-0.7,0.1-1.4,0.3-2 c0.2-0.6,0.5-1.1,0.9-1.5c0.4-0.4,0.8-0.7,1.3-0.9c0.5-0.2,1-0.3,1.6-0.3c0.6,0,1.1,0.1,1.6,0.3c0.5,0.2,0.9,0.5,1.3,0.9 c0.4,0.4,0.6,0.9,0.8,1.5c0.2,0.6,0.3,1.2,0.3,1.9C74.7,131.8,74.6,132.4,74.4,133z M72.3,128.9c-0.4-0.5-1-0.8-1.7-0.8 c-0.7,0-1.2,0.3-1.6,0.8c-0.4,0.5-0.6,1.3-0.6,2.2c0,1,0.2,1.8,0.6,2.3c0.4,0.5,1,0.8,1.6,0.8c0.3,0,0.6-0.1,0.9-0.2 c0.3-0.2,0.5-0.4,0.7-0.6c0.2-0.3,0.3-0.6,0.4-1c0.1-0.4,0.2-0.8,0.2-1.2C72.9,130.2,72.7,129.4,72.3,128.9z"/><path fill="#FFF" d="M81.3,128.4c-0.2-0.1-0.4-0.2-0.6-0.2c-0.2-0.1-0.5-0.1-0.8-0.1c-0.6,0-1,0.2-1.3,0.6 c-0.3,0.4-0.5,1-0.5,1.7v5.2h-1.8v-9h1.8v0.9c0.2-0.3,0.5-0.5,0.9-0.7c0.4-0.2,0.8-0.3,1.2-0.3c0.4,0,0.7,0,0.9,0.1 c0.2,0.1,0.4,0.2,0.6,0.3L81.3,128.4z"/><path fill="#FFF" d="M87.6,135.4c-0.2,0.1-0.5,0.2-0.8,0.3c-0.3,0.1-0.6,0.1-1,0.1c-0.6,0-1.1-0.2-1.5-0.6 c-0.4-0.4-0.5-1-0.5-1.8v-5.2h-1.3v-1.6h1.3V124l1.7-0.9v3.5h2.2v1.6h-2.2v4.9c0,0.4,0.1,0.7,0.2,0.9c0.1,0.1,0.4,0.2,0.7,0.2 c0.2,0,0.5,0,0.7-0.1c0.2-0.1,0.4-0.2,0.6-0.3L87.6,135.4z"/><path fill="#FFF" d="M94.7,135.6v-0.9c-0.3,0.3-0.7,0.6-1.1,0.8c-0.4,0.2-0.9,0.3-1.4,0.3c-0.4,0-0.7-0.1-1.1-0.2 c-0.4-0.1-0.7-0.3-1-0.5c-0.3-0.2-0.5-0.6-0.7-0.9c-0.2-0.4-0.3-0.9-0.3-1.4c0-0.5,0.1-0.9,0.3-1.3c0.2-0.4,0.4-0.7,0.8-0.9 c0.3-0.2,0.7-0.4,1.1-0.5c0.4-0.1,0.9-0.2,1.4-0.2c0.8,0,1.5,0.1,2,0.3v-0.7c0-0.5-0.1-0.9-0.4-1.1c-0.3-0.3-0.7-0.4-1.3-0.4 c-0.5,0-0.9,0-1.3,0.1c-0.4,0.1-0.7,0.2-1.1,0.4l-0.7-1.3c0.4-0.3,0.9-0.5,1.4-0.6c0.5-0.1,1.1-0.2,1.7-0.2c1,0,1.8,0.2,2.5,0.8 c0.6,0.5,0.9,1.3,0.9,2.3v6.2H94.7z M94.7,131.7c-0.2-0.1-0.5-0.2-0.9-0.3c-0.3-0.1-0.7-0.1-1.2-0.1c-0.6,0-1,0.1-1.4,0.4 c-0.3,0.2-0.5,0.6-0.5,1c0,0.4,0.1,0.8,0.4,1.1c0.3,0.3,0.7,0.4,1.3,0.4c0.5,0,0.9-0.1,1.3-0.4c0.4-0.2,0.7-0.5,0.9-0.8V131.7z"/><path fill="#FFF" d="M102.8,135.4c-0.2,0.1-0.5,0.2-0.8,0.3c-0.3,0.1-0.6,0.1-1,0.1c-0.6,0-1.1-0.2-1.5-0.6 c-0.4-0.4-0.5-1-0.5-1.8v-5.2h-1.3v-1.6H99V124l1.7-0.9v3.5h2.2v1.6h-2.2v4.9c0,0.4,0.1,0.7,0.2,0.9c0.1,0.1,0.4,0.2,0.7,0.2 c0.2,0,0.5,0,0.7-0.1c0.2-0.1,0.4-0.2,0.6-0.3L102.8,135.4z"/><path fill="#FFF" d="M106.7,125c-0.2,0.2-0.5,0.3-0.8,0.3c-0.3,0-0.6-0.1-0.8-0.3c-0.2-0.2-0.3-0.5-0.3-0.8 c0-0.3,0.1-0.6,0.3-0.8c0.2-0.2,0.5-0.3,0.8-0.3c0.3,0,0.6,0.1,0.8,0.3c0.2,0.2,0.3,0.5,0.3,0.8 C107.1,124.5,106.9,124.8,106.7,125z M105,135.6v-9h1.8v9H105z"/><path fill="#FFF" d="M116.3,133c-0.2,0.6-0.5,1.1-0.9,1.5c-0.4,0.4-0.8,0.7-1.3,0.9c-0.5,0.2-1,0.3-1.6,0.3 c-0.6,0-1.1-0.1-1.6-0.3c-0.5-0.2-0.9-0.5-1.3-1c-0.4-0.4-0.6-0.9-0.8-1.5c-0.2-0.6-0.3-1.2-0.3-1.9c0-0.7,0.1-1.4,0.3-2 c0.2-0.6,0.5-1.1,0.9-1.5c0.4-0.4,0.8-0.7,1.3-0.9c0.5-0.2,1-0.3,1.6-0.3c0.6,0,1.1,0.1,1.6,0.3c0.5,0.2,0.9,0.5,1.3,0.9 c0.4,0.4,0.6,0.9,0.8,1.5c0.2,0.6,0.3,1.2,0.3,1.9C116.7,131.8,116.5,132.4,116.3,133z M114.2,128.9c-0.4-0.5-1-0.8-1.7-0.8 c-0.7,0-1.2,0.3-1.6,0.8c-0.4,0.5-0.6,1.3-0.6,2.2c0,1,0.2,1.8,0.6,2.3c0.4,0.5,1,0.8,1.6,0.8c0.3,0,0.6-0.1,0.9-0.2 c0.3-0.2,0.5-0.4,0.7-0.6c0.2-0.3,0.3-0.6,0.4-1c0.1-0.4,0.2-0.8,0.2-1.2C114.9,130.2,114.7,129.4,114.2,128.9z"/><path fill="#FFF" d="M123.9,135.6v-5.1c0-0.9-0.2-1.6-0.5-1.9c-0.3-0.4-0.8-0.6-1.4-0.6c-0.6,0-1.1,0.2-1.4,0.6 c-0.3,0.4-0.5,1-0.5,1.7v5.3h-1.8v-9h1.8v0.9c0.2-0.3,0.5-0.6,1-0.8c0.4-0.2,0.8-0.3,1.3-0.3c1.1,0,1.9,0.3,2.4,1 c0.5,0.7,0.8,1.7,0.8,3v5.2H123.9z"/></g><g><path fill="#046AB2" d="M15.1,88V34.1h34.7V42H23.1v13.2h15.5v7.9H23.1v17H51V88H15.1z"/><path fill="#046AB2" d="M81.8,88V65.2c0-4.1-0.7-7-2.2-8.6c-1.5-1.6-3.5-2.5-6.1-2.5c-2.7,0-4.7,0.9-6.1,2.7 c-1.4,1.8-2.1,4.3-2.1,7.6V88h-8V47.6h8v3.9c1-1.5,2.5-2.7,4.3-3.5c1.8-0.8,3.8-1.2,5.9-1.2c4.7,0,8.3,1.5,10.7,4.5 c2.4,3,3.7,7.6,3.7,13.6V88H81.8z"/><path fill="#046AB2" d="M129.7,76.6c-0.9,2.6-2.2,4.9-3.9,6.7c-1.6,1.8-3.6,3.2-5.8,4.2c-2.2,1-4.6,1.4-7.2,1.4 c-2.6,0-4.9-0.5-7.1-1.5c-2.2-1-4-2.4-5.6-4.3c-1.6-1.8-2.8-4.1-3.7-6.6C95.5,73.9,95,71,95,67.8c0-3.3,0.5-6.2,1.4-8.9 s2.2-4.8,3.8-6.7c1.6-1.8,3.5-3.2,5.7-4.2c2.2-1,4.6-1.4,7.1-1.4c2.6,0,5,0.5,7.2,1.5c2.2,1,4.1,2.4,5.7,4.2 c1.6,1.8,2.9,4,3.8,6.6c0.9,2.6,1.3,5.5,1.3,8.6C131.1,70.9,130.6,73.9,129.7,76.6z M120.3,57.9c-1.8-2.4-4.4-3.7-7.6-3.7 c-3,0-5.4,1.2-7.1,3.7c-1.7,2.4-2.6,5.7-2.6,9.7c0,4.5,0.9,7.9,2.8,10.2c1.8,2.3,4.3,3.5,7.3,3.5c1.5,0,2.9-0.4,4.1-1.1 c1.2-0.7,2.3-1.7,3.2-2.9c0.9-1.2,1.5-2.6,2-4.3c0.5-1.6,0.7-3.4,0.7-5.2C123.1,63.7,122.2,60.4,120.3,57.9z"/></g></g></svg>